<svg viewBox="0 0 64 64" xmlns="http://www.w3.org/2000/svg">
  <defs>
    <linearGradient id="bgGradient" x1="0%" y1="0%" x2="100%" y2="100%">
      <stop offset="0%" style="stop-color:#3b82f6;stop-opacity:1" />
      <stop offset="50%" style="stop-color:#8b5cf6;stop-opacity:1" />
      <stop offset="100%" style="stop-color:#ec4899;stop-opacity:1" />
    </linearGradient>
    <linearGradient id="sparkleGradient" x1="0%" y1="0%" x2="100%" y2="100%">
      <stop offset="0%" style="stop-color:#fbbf24;stop-opacity:1" />
      <stop offset="100%" style="stop-color:#f59e0b;stop-opacity:1" />
    </linearGradient>
  </defs>
  
  <!-- 背景圆形 -->
  <circle cx="32" cy="32" r="30" fill="url(#bgGradient)" stroke="rgba(255,255,255,0.2)" stroke-width="2"/>
  
  <!-- 图像框架 -->
  <rect x="16" y="20" width="32" height="24" rx="3" fill="rgba(255,255,255,0.9)" stroke="rgba(255,255,255,0.3)" stroke-width="1"/>
  
  <!-- 图像内容（山峰图标代表风景） -->
  <path d="M20 38 L26 32 L30 36 L36 30 L44 38 L44 40 L20 40 Z" fill="#6b7280"/>
  <path d="M20 38 L26 32 L30 36 L36 30 L44 38 L44 40 L20 40 Z" fill="url(#bgGradient)" opacity="0.7"/>
  
  <!-- 太阳/光源 -->
  <circle cx="38" cy="26" r="3" fill="#fbbf24"/>
  
  <!-- AI魔法效果 - 闪光点 -->
  <g fill="url(#sparkleGradient)">
    <!-- 大闪光 -->
    <path d="M24 16 L25 18 L27 17 L25 19 L26 21 L24 19 L22 21 L23 19 L21 17 L23 18 Z"/>
    <!-- 中闪光 -->
    <path d="M42 46 L43 47 L44 46 L43 48 L44 49 L42 48 L41 49 L42 47 Z"/>
    <!-- 小闪光 -->
    <circle cx="18" cy="26" r="1"/>
    <circle cx="46" cy="18" r="1"/>
    <circle cx="48" cy="36" r="1"/>
  </g>
  
  <!-- 处理进度指示器 -->
  <rect x="20" y="46" width="24" height="2" rx="1" fill="rgba(255,255,255,0.3)"/>
  <rect x="20" y="46" width="18" height="2" rx="1" fill="url(#sparkleGradient)"/>
</svg> 